<mxfile host="app.diagrams.net" modified="2021-10-05T06:27:37.863Z" agent="5.0 (Windows NT 10.0; Win64; x64) AppleWebKit/537.36 (KHTML, like Gecko) Chrome/94.0.4606.61 Safari/537.36" etag="IkdPGn8556t-oaHfiR3G" version="15.4.1" type="github">
  <diagram id="C5RBs43oDa-KdzZeNtuy" name="Page-1">
    <mxGraphModel dx="2105" dy="547" grid="1" gridSize="10" guides="1" tooltips="1" connect="1" arrows="1" fold="1" page="1" pageScale="1" pageWidth="827" pageHeight="1169" math="0" shadow="0">
      <root>
        <mxCell id="WIyWlLk6GJQsqaUBKTNV-0" />
        <mxCell id="WIyWlLk6GJQsqaUBKTNV-1" parent="WIyWlLk6GJQsqaUBKTNV-0" />
        <mxCell id="y754kyMNrBhwift2kbsS-52" style="edgeStyle=orthogonalEdgeStyle;rounded=0;orthogonalLoop=1;jettySize=auto;html=1;exitX=0;exitY=0.5;exitDx=0;exitDy=0;entryX=0.001;entryY=0.084;entryDx=0;entryDy=0;entryPerimeter=0;" edge="1" parent="WIyWlLk6GJQsqaUBKTNV-1" source="y754kyMNrBhwift2kbsS-2" target="y754kyMNrBhwift2kbsS-17">
          <mxGeometry relative="1" as="geometry" />
        </mxCell>
        <mxCell id="y754kyMNrBhwift2kbsS-62" value="" style="edgeStyle=orthogonalEdgeStyle;shape=flexArrow;rounded=0;orthogonalLoop=1;jettySize=auto;html=1;" edge="1" parent="WIyWlLk6GJQsqaUBKTNV-1" source="y754kyMNrBhwift2kbsS-2" target="y754kyMNrBhwift2kbsS-4">
          <mxGeometry relative="1" as="geometry" />
        </mxCell>
        <mxCell id="y754kyMNrBhwift2kbsS-2" value="Менеджер сеансов" style="rounded=0;whiteSpace=wrap;html=1;" vertex="1" parent="WIyWlLk6GJQsqaUBKTNV-1">
          <mxGeometry x="180" y="70" width="150" height="60" as="geometry" />
        </mxCell>
        <mxCell id="y754kyMNrBhwift2kbsS-54" style="edgeStyle=orthogonalEdgeStyle;rounded=0;orthogonalLoop=1;jettySize=auto;html=1;exitX=0.75;exitY=1;exitDx=0;exitDy=0;entryX=-0.001;entryY=0.089;entryDx=0;entryDy=0;entryPerimeter=0;" edge="1" parent="WIyWlLk6GJQsqaUBKTNV-1" source="y754kyMNrBhwift2kbsS-4" target="y754kyMNrBhwift2kbsS-40">
          <mxGeometry relative="1" as="geometry" />
        </mxCell>
        <mxCell id="y754kyMNrBhwift2kbsS-66" value="" style="edgeStyle=orthogonalEdgeStyle;shape=flexArrow;rounded=0;orthogonalLoop=1;jettySize=auto;html=1;entryX=0.5;entryY=0;entryDx=0;entryDy=0;exitX=1;exitY=0.5;exitDx=0;exitDy=0;" edge="1" parent="WIyWlLk6GJQsqaUBKTNV-1" source="y754kyMNrBhwift2kbsS-4" target="y754kyMNrBhwift2kbsS-6">
          <mxGeometry relative="1" as="geometry">
            <mxPoint x="475" y="210" as="targetPoint" />
          </mxGeometry>
        </mxCell>
        <mxCell id="y754kyMNrBhwift2kbsS-4" value="Scheduler" style="rounded=0;whiteSpace=wrap;html=1;" vertex="1" parent="WIyWlLk6GJQsqaUBKTNV-1">
          <mxGeometry x="400" y="70" width="150" height="60" as="geometry" />
        </mxCell>
        <mxCell id="y754kyMNrBhwift2kbsS-68" value="" style="edgeStyle=orthogonalEdgeStyle;shape=flexArrow;rounded=0;orthogonalLoop=1;jettySize=auto;html=1;exitX=0.5;exitY=1;exitDx=0;exitDy=0;entryX=0.996;entryY=0.617;entryDx=0;entryDy=0;entryPerimeter=0;" edge="1" parent="WIyWlLk6GJQsqaUBKTNV-1" source="y754kyMNrBhwift2kbsS-6" target="y754kyMNrBhwift2kbsS-5">
          <mxGeometry relative="1" as="geometry">
            <mxPoint x="790" y="500" as="targetPoint" />
          </mxGeometry>
        </mxCell>
        <mxCell id="y754kyMNrBhwift2kbsS-70" value="" style="edgeStyle=orthogonalEdgeStyle;shape=flexArrow;rounded=0;orthogonalLoop=1;jettySize=auto;html=1;entryX=0.5;entryY=1;entryDx=0;entryDy=0;" edge="1" parent="WIyWlLk6GJQsqaUBKTNV-1" source="y754kyMNrBhwift2kbsS-5" target="y754kyMNrBhwift2kbsS-4">
          <mxGeometry relative="1" as="geometry">
            <mxPoint x="475" y="350" as="targetPoint" />
          </mxGeometry>
        </mxCell>
        <mxCell id="y754kyMNrBhwift2kbsS-5" value="COLVIR" style="rounded=0;whiteSpace=wrap;html=1;" vertex="1" parent="WIyWlLk6GJQsqaUBKTNV-1">
          <mxGeometry x="400" y="430" width="150" height="60" as="geometry" />
        </mxCell>
        <mxCell id="y754kyMNrBhwift2kbsS-6" value="card2any" style="rounded=0;whiteSpace=wrap;html=1;" vertex="1" parent="WIyWlLk6GJQsqaUBKTNV-1">
          <mxGeometry x="730" y="260" width="150" height="60" as="geometry" />
        </mxCell>
        <mxCell id="y754kyMNrBhwift2kbsS-7" value="card_bnpl" style="swimlane;fontStyle=0;childLayout=stackLayout;horizontal=1;startSize=30;horizontalStack=0;resizeParent=1;resizeParentMax=0;resizeLast=0;collapsible=1;marginBottom=0;" vertex="1" parent="WIyWlLk6GJQsqaUBKTNV-1">
          <mxGeometry x="300" y="520" width="140" height="240" as="geometry" />
        </mxCell>
        <mxCell id="y754kyMNrBhwift2kbsS-8" value="id" style="text;strokeColor=none;fillColor=none;align=left;verticalAlign=middle;spacingLeft=4;spacingRight=4;overflow=hidden;points=[[0,0.5],[1,0.5]];portConstraint=eastwest;rotatable=0;" vertex="1" parent="y754kyMNrBhwift2kbsS-7">
          <mxGeometry y="30" width="140" height="30" as="geometry" />
        </mxCell>
        <mxCell id="y754kyMNrBhwift2kbsS-9" value="number" style="text;strokeColor=none;fillColor=none;align=left;verticalAlign=middle;spacingLeft=4;spacingRight=4;overflow=hidden;points=[[0,0.5],[1,0.5]];portConstraint=eastwest;rotatable=0;" vertex="1" parent="y754kyMNrBhwift2kbsS-7">
          <mxGeometry y="60" width="140" height="30" as="geometry" />
        </mxCell>
        <mxCell id="y754kyMNrBhwift2kbsS-10" value="due_date" style="text;strokeColor=none;fillColor=none;align=left;verticalAlign=middle;spacingLeft=4;spacingRight=4;overflow=hidden;points=[[0,0.5],[1,0.5]];portConstraint=eastwest;rotatable=0;" vertex="1" parent="y754kyMNrBhwift2kbsS-7">
          <mxGeometry y="90" width="140" height="30" as="geometry" />
        </mxCell>
        <mxCell id="y754kyMNrBhwift2kbsS-13" value="issuer" style="text;strokeColor=none;fillColor=none;align=left;verticalAlign=middle;spacingLeft=4;spacingRight=4;overflow=hidden;points=[[0,0.5],[1,0.5]];portConstraint=eastwest;rotatable=0;" vertex="1" parent="y754kyMNrBhwift2kbsS-7">
          <mxGeometry y="120" width="140" height="30" as="geometry" />
        </mxCell>
        <mxCell id="y754kyMNrBhwift2kbsS-14" value="input_date" style="text;strokeColor=none;fillColor=none;align=left;verticalAlign=middle;spacingLeft=4;spacingRight=4;overflow=hidden;points=[[0,0.5],[1,0.5]];portConstraint=eastwest;rotatable=0;" vertex="1" parent="y754kyMNrBhwift2kbsS-7">
          <mxGeometry y="150" width="140" height="30" as="geometry" />
        </mxCell>
        <mxCell id="y754kyMNrBhwift2kbsS-32" value="user_id" style="text;strokeColor=none;fillColor=none;align=left;verticalAlign=middle;spacingLeft=4;spacingRight=4;overflow=hidden;points=[[0,0.5],[1,0.5]];portConstraint=eastwest;rotatable=0;" vertex="1" parent="y754kyMNrBhwift2kbsS-7">
          <mxGeometry y="180" width="140" height="30" as="geometry" />
        </mxCell>
        <mxCell id="y754kyMNrBhwift2kbsS-33" value="input_date" style="text;strokeColor=none;fillColor=none;align=left;verticalAlign=middle;spacingLeft=4;spacingRight=4;overflow=hidden;points=[[0,0.5],[1,0.5]];portConstraint=eastwest;rotatable=0;" vertex="1" parent="y754kyMNrBhwift2kbsS-7">
          <mxGeometry y="210" width="140" height="30" as="geometry" />
        </mxCell>
        <mxCell id="y754kyMNrBhwift2kbsS-53" style="edgeStyle=orthogonalEdgeStyle;rounded=0;orthogonalLoop=1;jettySize=auto;html=1;exitX=0.5;exitY=1;exitDx=0;exitDy=0;entryX=-0.007;entryY=0.059;entryDx=0;entryDy=0;entryPerimeter=0;" edge="1" parent="WIyWlLk6GJQsqaUBKTNV-1" source="y754kyMNrBhwift2kbsS-12" target="y754kyMNrBhwift2kbsS-7">
          <mxGeometry relative="1" as="geometry">
            <mxPoint x="255" y="565" as="targetPoint" />
          </mxGeometry>
        </mxCell>
        <mxCell id="y754kyMNrBhwift2kbsS-12" value="БД Данных карт" style="rounded=0;whiteSpace=wrap;html=1;" vertex="1" parent="WIyWlLk6GJQsqaUBKTNV-1">
          <mxGeometry x="180" y="430" width="150" height="60" as="geometry" />
        </mxCell>
        <mxCell id="y754kyMNrBhwift2kbsS-17" value="session_bnpl" style="swimlane;fontStyle=0;childLayout=stackLayout;horizontal=1;startSize=30;horizontalStack=0;resizeParent=1;resizeParentMax=0;resizeLast=0;collapsible=1;marginBottom=0;" vertex="1" parent="WIyWlLk6GJQsqaUBKTNV-1">
          <mxGeometry x="-10" y="150" width="140" height="240" as="geometry" />
        </mxCell>
        <mxCell id="y754kyMNrBhwift2kbsS-18" value="id" style="text;strokeColor=none;fillColor=none;align=left;verticalAlign=middle;spacingLeft=4;spacingRight=4;overflow=hidden;points=[[0,0.5],[1,0.5]];portConstraint=eastwest;rotatable=0;" vertex="1" parent="y754kyMNrBhwift2kbsS-17">
          <mxGeometry y="30" width="140" height="30" as="geometry" />
        </mxCell>
        <mxCell id="y754kyMNrBhwift2kbsS-22" value="merchant_id" style="text;strokeColor=none;fillColor=none;align=left;verticalAlign=middle;spacingLeft=4;spacingRight=4;overflow=hidden;points=[[0,0.5],[1,0.5]];portConstraint=eastwest;rotatable=0;" vertex="1" parent="y754kyMNrBhwift2kbsS-17">
          <mxGeometry y="60" width="140" height="30" as="geometry" />
        </mxCell>
        <mxCell id="y754kyMNrBhwift2kbsS-21" value="purchase_id" style="text;strokeColor=none;fillColor=none;align=left;verticalAlign=middle;spacingLeft=4;spacingRight=4;overflow=hidden;points=[[0,0.5],[1,0.5]];portConstraint=eastwest;rotatable=0;" vertex="1" parent="y754kyMNrBhwift2kbsS-17">
          <mxGeometry y="90" width="140" height="30" as="geometry" />
        </mxCell>
        <mxCell id="y754kyMNrBhwift2kbsS-19" value="started_at" style="text;strokeColor=none;fillColor=none;align=left;verticalAlign=middle;spacingLeft=4;spacingRight=4;overflow=hidden;points=[[0,0.5],[1,0.5]];portConstraint=eastwest;rotatable=0;" vertex="1" parent="y754kyMNrBhwift2kbsS-17">
          <mxGeometry y="120" width="140" height="30" as="geometry" />
        </mxCell>
        <mxCell id="y754kyMNrBhwift2kbsS-24" value="finished_at" style="text;strokeColor=none;fillColor=none;align=left;verticalAlign=middle;spacingLeft=4;spacingRight=4;overflow=hidden;points=[[0,0.5],[1,0.5]];portConstraint=eastwest;rotatable=0;" vertex="1" parent="y754kyMNrBhwift2kbsS-17">
          <mxGeometry y="150" width="140" height="30" as="geometry" />
        </mxCell>
        <mxCell id="y754kyMNrBhwift2kbsS-20" value="user_id" style="text;strokeColor=none;fillColor=none;align=left;verticalAlign=middle;spacingLeft=4;spacingRight=4;overflow=hidden;points=[[0,0.5],[1,0.5]];portConstraint=eastwest;rotatable=0;" vertex="1" parent="y754kyMNrBhwift2kbsS-17">
          <mxGeometry y="180" width="140" height="30" as="geometry" />
        </mxCell>
        <mxCell id="y754kyMNrBhwift2kbsS-39" value="scheduled" style="text;strokeColor=none;fillColor=none;align=left;verticalAlign=middle;spacingLeft=4;spacingRight=4;overflow=hidden;points=[[0,0.5],[1,0.5]];portConstraint=eastwest;rotatable=0;" vertex="1" parent="y754kyMNrBhwift2kbsS-17">
          <mxGeometry y="210" width="140" height="30" as="geometry" />
        </mxCell>
        <mxCell id="y754kyMNrBhwift2kbsS-25" value="user_bnpl" style="swimlane;fontStyle=0;childLayout=stackLayout;horizontal=1;startSize=30;horizontalStack=0;resizeParent=1;resizeParentMax=0;resizeLast=0;collapsible=1;marginBottom=0;" vertex="1" parent="WIyWlLk6GJQsqaUBKTNV-1">
          <mxGeometry x="50" y="540" width="140" height="210" as="geometry" />
        </mxCell>
        <mxCell id="y754kyMNrBhwift2kbsS-26" value="id" style="text;strokeColor=none;fillColor=none;align=left;verticalAlign=middle;spacingLeft=4;spacingRight=4;overflow=hidden;points=[[0,0.5],[1,0.5]];portConstraint=eastwest;rotatable=0;" vertex="1" parent="y754kyMNrBhwift2kbsS-25">
          <mxGeometry y="30" width="140" height="30" as="geometry" />
        </mxCell>
        <mxCell id="y754kyMNrBhwift2kbsS-27" value="number" style="text;strokeColor=none;fillColor=none;align=left;verticalAlign=middle;spacingLeft=4;spacingRight=4;overflow=hidden;points=[[0,0.5],[1,0.5]];portConstraint=eastwest;rotatable=0;" vertex="1" parent="y754kyMNrBhwift2kbsS-25">
          <mxGeometry y="60" width="140" height="30" as="geometry" />
        </mxCell>
        <mxCell id="y754kyMNrBhwift2kbsS-28" value="iin" style="text;strokeColor=none;fillColor=none;align=left;verticalAlign=middle;spacingLeft=4;spacingRight=4;overflow=hidden;points=[[0,0.5],[1,0.5]];portConstraint=eastwest;rotatable=0;" vertex="1" parent="y754kyMNrBhwift2kbsS-25">
          <mxGeometry y="90" width="140" height="30" as="geometry" />
        </mxCell>
        <mxCell id="y754kyMNrBhwift2kbsS-29" value="started_at" style="text;strokeColor=none;fillColor=none;align=left;verticalAlign=middle;spacingLeft=4;spacingRight=4;overflow=hidden;points=[[0,0.5],[1,0.5]];portConstraint=eastwest;rotatable=0;" vertex="1" parent="y754kyMNrBhwift2kbsS-25">
          <mxGeometry y="120" width="140" height="30" as="geometry" />
        </mxCell>
        <mxCell id="y754kyMNrBhwift2kbsS-30" value="finished_at" style="text;strokeColor=none;fillColor=none;align=left;verticalAlign=middle;spacingLeft=4;spacingRight=4;overflow=hidden;points=[[0,0.5],[1,0.5]];portConstraint=eastwest;rotatable=0;" vertex="1" parent="y754kyMNrBhwift2kbsS-25">
          <mxGeometry y="150" width="140" height="30" as="geometry" />
        </mxCell>
        <mxCell id="y754kyMNrBhwift2kbsS-31" value="input_date" style="text;strokeColor=none;fillColor=none;align=left;verticalAlign=middle;spacingLeft=4;spacingRight=4;overflow=hidden;points=[[0,0.5],[1,0.5]];portConstraint=eastwest;rotatable=0;" vertex="1" parent="y754kyMNrBhwift2kbsS-25">
          <mxGeometry y="180" width="140" height="30" as="geometry" />
        </mxCell>
        <mxCell id="y754kyMNrBhwift2kbsS-37" value="" style="endArrow=none;dashed=1;html=1;rounded=0;edgeStyle=orthogonalEdgeStyle;entryX=0;entryY=0.5;entryDx=0;entryDy=0;exitX=1;exitY=0.5;exitDx=0;exitDy=0;" edge="1" parent="WIyWlLk6GJQsqaUBKTNV-1" source="y754kyMNrBhwift2kbsS-26" target="y754kyMNrBhwift2kbsS-32">
          <mxGeometry width="50" height="50" relative="1" as="geometry">
            <mxPoint x="240" y="690" as="sourcePoint" />
            <mxPoint x="440" y="560" as="targetPoint" />
          </mxGeometry>
        </mxCell>
        <mxCell id="y754kyMNrBhwift2kbsS-38" value="" style="endArrow=none;dashed=1;html=1;rounded=0;edgeStyle=orthogonalEdgeStyle;entryX=0;entryY=0.5;entryDx=0;entryDy=0;exitX=0;exitY=0.5;exitDx=0;exitDy=0;" edge="1" parent="WIyWlLk6GJQsqaUBKTNV-1" source="y754kyMNrBhwift2kbsS-20" target="y754kyMNrBhwift2kbsS-26">
          <mxGeometry width="50" height="50" relative="1" as="geometry">
            <mxPoint x="-50" y="420" as="sourcePoint" />
            <mxPoint x="40" y="500" as="targetPoint" />
          </mxGeometry>
        </mxCell>
        <mxCell id="y754kyMNrBhwift2kbsS-40" value="bnpl_schedules" style="swimlane;fontStyle=0;childLayout=stackLayout;horizontal=1;startSize=30;horizontalStack=0;resizeParent=1;resizeParentMax=0;resizeLast=0;collapsible=1;marginBottom=0;" vertex="1" parent="WIyWlLk6GJQsqaUBKTNV-1">
          <mxGeometry x="540" y="160" width="140" height="240" as="geometry" />
        </mxCell>
        <mxCell id="y754kyMNrBhwift2kbsS-41" value="id" style="text;strokeColor=none;fillColor=none;align=left;verticalAlign=middle;spacingLeft=4;spacingRight=4;overflow=hidden;points=[[0,0.5],[1,0.5]];portConstraint=eastwest;rotatable=0;" vertex="1" parent="y754kyMNrBhwift2kbsS-40">
          <mxGeometry y="30" width="140" height="30" as="geometry" />
        </mxCell>
        <mxCell id="y754kyMNrBhwift2kbsS-42" value="merchant_id" style="text;strokeColor=none;fillColor=none;align=left;verticalAlign=middle;spacingLeft=4;spacingRight=4;overflow=hidden;points=[[0,0.5],[1,0.5]];portConstraint=eastwest;rotatable=0;" vertex="1" parent="y754kyMNrBhwift2kbsS-40">
          <mxGeometry y="60" width="140" height="30" as="geometry" />
        </mxCell>
        <mxCell id="y754kyMNrBhwift2kbsS-43" value="purchase_id" style="text;strokeColor=none;fillColor=none;align=left;verticalAlign=middle;spacingLeft=4;spacingRight=4;overflow=hidden;points=[[0,0.5],[1,0.5]];portConstraint=eastwest;rotatable=0;" vertex="1" parent="y754kyMNrBhwift2kbsS-40">
          <mxGeometry y="90" width="140" height="30" as="geometry" />
        </mxCell>
        <mxCell id="y754kyMNrBhwift2kbsS-44" value="started_at" style="text;strokeColor=none;fillColor=none;align=left;verticalAlign=middle;spacingLeft=4;spacingRight=4;overflow=hidden;points=[[0,0.5],[1,0.5]];portConstraint=eastwest;rotatable=0;" vertex="1" parent="y754kyMNrBhwift2kbsS-40">
          <mxGeometry y="120" width="140" height="30" as="geometry" />
        </mxCell>
        <mxCell id="y754kyMNrBhwift2kbsS-46" value="user_id" style="text;strokeColor=none;fillColor=none;align=left;verticalAlign=middle;spacingLeft=4;spacingRight=4;overflow=hidden;points=[[0,0.5],[1,0.5]];portConstraint=eastwest;rotatable=0;" vertex="1" parent="y754kyMNrBhwift2kbsS-40">
          <mxGeometry y="150" width="140" height="30" as="geometry" />
        </mxCell>
        <mxCell id="y754kyMNrBhwift2kbsS-71" value="next_charge_date" style="text;strokeColor=none;fillColor=none;align=left;verticalAlign=middle;spacingLeft=4;spacingRight=4;overflow=hidden;points=[[0,0.5],[1,0.5]];portConstraint=eastwest;rotatable=0;" vertex="1" parent="y754kyMNrBhwift2kbsS-40">
          <mxGeometry y="180" width="140" height="30" as="geometry" />
        </mxCell>
        <mxCell id="y754kyMNrBhwift2kbsS-47" value="card_id" style="text;strokeColor=none;fillColor=none;align=left;verticalAlign=middle;spacingLeft=4;spacingRight=4;overflow=hidden;points=[[0,0.5],[1,0.5]];portConstraint=eastwest;rotatable=0;" vertex="1" parent="y754kyMNrBhwift2kbsS-40">
          <mxGeometry y="210" width="140" height="30" as="geometry" />
        </mxCell>
        <mxCell id="y754kyMNrBhwift2kbsS-73" value="" style="endArrow=none;dashed=1;html=1;rounded=0;edgeStyle=orthogonalEdgeStyle;exitX=1;exitY=0.5;exitDx=0;exitDy=0;entryX=1;entryY=0.5;entryDx=0;entryDy=0;" edge="1" parent="WIyWlLk6GJQsqaUBKTNV-1" source="y754kyMNrBhwift2kbsS-47" target="y754kyMNrBhwift2kbsS-8">
          <mxGeometry width="50" height="50" relative="1" as="geometry">
            <mxPoint x="200" y="595" as="sourcePoint" />
            <mxPoint x="410" y="570" as="targetPoint" />
            <Array as="points">
              <mxPoint x="700" y="385" />
              <mxPoint x="700" y="565" />
            </Array>
          </mxGeometry>
        </mxCell>
      </root>
    </mxGraphModel>
  </diagram>
</mxfile>
